<svg xmlns="http://www.w3.org/2000/svg" viewBox="766 4249 124 124"><defs><clipPath id="a"><path d="M772 4255h112v112H772Zm0 0"/></clipPath><clipPath id="b"><path d="M845.086 4255.031c-.656.133-1.984 1.067-2.492 1.067-.461 0-2.043-.95-2.707-1.067h-2.188c-.66.117-2.238 1.067-2.703 1.067-.508 0-1.836-.934-2.492-1.067h-2.402c-.66.133-1.985 1.067-2.489 1.067-.465 0-2.05-.95-2.71-1.067h-2.184c-.66.117-2.246 1.067-2.711 1.067-.504 0-1.832-.934-2.488-1.067h-2.403c-.652.133-1.984 1.067-2.492 1.067-.46 0-2.043-.95-2.707-1.067h-2.18c-.664.117-2.25 1.067-2.71 1.067-.508 0-1.833-.934-2.493-1.067h-2.398c-.657.133-1.989 1.067-2.496 1.067-.461 0-2.043-.95-2.703-1.067h-2.188c-.668.098-2.234 1.11-2.684 1.086-.562-.027-1.812-.945-2.515-1.086h-2.395c-.664.133-1.988 1.067-2.492 1.067-.465 0-2.05-.95-2.707-1.067h-2.187c-3.387.946-5.68 3.762-5.106 7.39.125.825.969 2.298.969 2.708 0 .918-1.246 2.184-1.067 4.34.106 1.195 1.055 2.41 1.086 3.058.024.465-1.082 2.313-1.105 3.672-.024 1.602 1.086 3.192 1.086 3.91.004.914-1.246 2.184-1.067 4.34.106 1.2 1.055 2.414 1.086 3.063.024.422-1.039 2.25-1.097 3.449-.086 1.785 1.078 3.324 1.078 4.129 0 .566-1.004 1.988-1.074 3.25-.114 1.98 1.078 3.308 1.074 4.137 0 .507-.98 2.164-1.067 3.257-.156 1.977 1.067 3.434 1.067 4.34 0 .918-1.246 2.184-1.067 4.344.098 1.117 1.067 2.516 1.067 3.043 0 .8-1.164 2.344-1.078 4.129.058 1.238 1.078 2.91 1.078 3.469 0 .441-.723 1.457-.883 2.14-1.148 4.813 3.281 9.04 8.023 7.59.508-.156 1.645-.906 1.852-.898.305.023 1.383.738 1.922.902 1.351.402 2.527.305 3.867-.07-.195 1.027-.32 2.074-.191 3.12.109.884 1.043 2.462 1.015 2.813-.039.469-.851 1.567-.984 2.48-.672 4.587 2.797 8.051 7.379 7.384.914-.137 2.008-.942 2.48-.985.352-.031 1.93.91 2.813 1.012 1.054.129 2.097.008 3.125-.188-.375 1.34-.473 2.516-.067 3.868.16.539.88 1.617.895 1.921.008.153-.836 1.579-.984 2.196-1.07 4.437 2.613 8.46 7.16 7.808.902-.132 2.18-1.015 2.66-1.015.906.004 2.363 1.222 4.34 1.07 1.093-.086 2.754-1.066 3.261-1.07.825 0 2.153 1.191 4.133 1.078 1.266-.07 2.688-1.078 3.246-1.078.809 0 2.352 1.164 4.133 1.086 1.238-.063 2.91-1.082 3.469-1.086.828 0 2.152 1.191 4.133 1.078 1.265-.07 2.691-1.078 3.25-1.078.715.004 2.312 1.113 3.914 1.09 1.355-.024 3.203-1.133 3.664-1.11.957.051 2.02 1.156 3.937 1.106 1.438-.043 2.86-1.086 3.47-1.086.714.004 2.312 1.113 3.913 1.09 1.356-.024 3.2-1.133 3.664-1.11.653.035 1.867.985 3.063 1.086 2.16.188 3.425-1.066 4.343-1.066.407 0 1.875.843 2.7.972 3.632.578 6.449-1.718 7.398-5.113v-2.172c-.113-.656-1.07-2.25-1.07-2.71 0-.509.937-1.844 1.07-2.497v-2.39c-.14-.7-1.058-1.954-1.09-2.52-.023-.445.992-2.027 1.09-2.695v-2.168c-.113-.66-1.07-2.25-1.07-2.719 0-.504.937-1.84 1.07-2.496v-2.39c-.14-.696-1.058-1.95-1.09-2.516-.023-.446.992-2.028 1.09-2.692v-2.172c-.113-.656-1.07-2.254-1.07-2.714 0-.508.937-1.84 1.07-2.5v-2.387c-.14-.7-1.058-1.953-1.09-2.516-.023-.453.992-2.031 1.09-2.695v-2.172c-.113-.656-1.07-2.254-1.07-2.715 0-.508.937-1.84 1.07-2.496v-2.387c-.133-.66-1.07-1.992-1.07-2.5 0-.46.957-2.058 1.07-2.71v-2.176c-.113-.653-1.07-2.25-1.07-2.711 0-.508.937-1.84 1.07-2.5v-2.387c-1.055-3.543-4.121-5.836-7.867-4.934-.613.149-2.04.996-2.195.985-.305-.016-1.38-.739-1.922-.895-1.352-.406-2.532-.308-3.867.067.195-1.028.32-2.075.19-3.125-.105-.883-1.042-2.461-1.01-2.813.038-.469.843-1.562.98-2.48.683-4.676-2.946-8.172-7.602-7.383-.77.129-1.781.941-2.262.984-.347.031-1.925-.902-2.808-1.011-1.055-.126-2.098-.004-3.125.19.375-1.335.472-2.515.07-3.862-.168-.543-.879-1.621-.902-1.926-.008-.176.847-1.563.992-2.192.875-3.77-1.379-6.804-4.934-7.867Zm-10.074 5.188c1.105 0 1.64-1.301 2.61-1.692 1.66-.672 2.53.02 3.28.711.543.492 1.028.992 1.7.98.761-.011 1.566-1.308 2.437-1.66 3.07-1.234 5.434 2.047 3.621 4.708-.484.707-1.234.8-1.195 1.855.043 1.191 1.191 1.492 1.586 2.34.437.953.36 2.59-.473 3.305-.953-.07-1.965-.22-2.926-.082-.886.12-1.93.972-2.437 1.015-.406.035-1.246-.601-1.77-.754-1.039-.324-2.277-.398-3.36-.23-.702.11-2.241 1.031-2.44 1.031-.317 0-.637-.418-.977-.543-1.387-.52-2.457-.703-3.957-.484-.918.136-2.016.941-2.48.98-.364.031-1.82-.86-2.63-.98-1.507-.219-2.578-.035-3.964.484-.332.125-.657.543-.973.543-.32 0-.644-.418-.976-.543-1.391-.52-2.458-.703-3.961-.484-.813.12-2.27 1.011-2.625.98-.48-.039-1.493-.855-2.262-.984-1.43-.242-2.695-.043-4.028.43-.39.136-.84.601-1.132.601-.317 0-.645-.418-.977-.543-1.387-.52-2.457-.703-3.96-.484-.813.12-2.27 1.011-2.63.98-.476-.039-1.488-.855-2.258-.984-4.746-.8-8.386 2.805-7.558 7.562.144.828.902 1.868.941 2.301.028.36-.863 1.817-.984 2.629-.219 1.504-.035 2.57.488 3.957.121.34.543.66.543.98 0 .293-.465.743-.605 1.133-.5 1.414-.649 2.47-.383 3.98.144.829.902 1.872.941 2.306.028.359-.863 1.812-.984 2.628-.219 1.504-.035 2.57.488 3.961.121.332.543.657.543.973 0 .297-.465.742-.605 1.137-.5 1.41-.649 2.465-.383 3.98.144.828.902 1.867.941 2.305.028.36-.863 1.812-.984 2.625-.219 1.508-.035 2.574.488 3.96.121.337.543.657.543.981 0 .317-.422.637-.543.973-.523 1.387-.707 2.457-.488 3.96.133.919.945 2.013.984 2.481.028.36-.906 1.93-1.015 2.813-.102.844.187 2.062.109 2.59-.156 1.015-2.695.922-3.473.507-.527-.28-.93-1.093-1.492-1.328-1.66-.687-1.785.641-2.972 1.262-2.645 1.379-5.438-1.039-4.297-3.867.347-.871 1.64-1.676 1.652-2.441.031-1.598-2.844-2.122-1.687-4.977.39-.973 1.71-1.508 1.687-2.633-.02-1.285-2.824-2.027-1.652-4.93.347-.875 1.64-1.675 1.652-2.441.031-1.582-2.691-2.031-1.762-4.836.352-1.055 1.785-1.621 1.762-2.773-.02-1.29-2.824-2.028-1.652-4.934.347-.871 1.64-1.676 1.652-2.441.031-1.578-2.691-2.024-1.762-4.836.352-1.055 1.785-1.617 1.762-2.774-.02-1.308-2.965-2.125-1.578-5.074.422-.898 1.558-1.27 1.578-2.3.023-1.118-1.297-1.665-1.687-2.634-1.157-2.855 1.718-3.375 1.687-4.976-.02-1.285-2.824-2.02-1.652-4.934.398-.988 1.629-1.386 1.652-2.441.023-1.113-1.293-1.66-1.687-2.629-1.012-2.492 1.472-4.992 3.976-3.973 1.3.528 1.941 2.63 3.754 1.211.14-.113.2-.445.383-.578 1.246-.883 2.273-1.246 3.742-.484.797.414 1.285 1.613 2.285 1.523 1.043-.094 1.52-1.289 2.473-1.672 1.656-.672 2.527.02 3.281.711.54.492 1.023.992 1.691.98.954-.015 1.82-1.948 3.692-1.948 1.867 0 2.73 1.933 3.683 1.949 1.122.02 1.66-1.301 2.633-1.692 1.657-.672 2.532.02 3.282.711.542.492 1.027.992 1.699.98.953-.015 1.812-1.948 3.683-1.948s2.73 1.933 3.684 1.949c1.121.02 1.66-1.301 2.637-1.692 1.656-.672 2.527.02 3.28.711.544.492 1.024.992 1.7.98.953-.015 1.813-1.948 3.68-1.948 1.87 0 2.734 1.933 3.687 1.949Zm8.23 15.457c1.621-.07 1.988-2.723 4.973-1.516 1.035.414 1.234 1.524 2.414 1.524 1.332 0 1.601-1.774 3.695-1.782 1.078 0 1.656.446 2.153.887.515.461.945.918 1.75.887 1.203-.055 1.457-1.192 2.375-1.555 2.695-1.062 5.109 1.36 4.05 4.05-.273.692-1.007.981-1.297 1.532-1.074 2.086 1.114 2.324 1.446 3.93.113.55.035 2.347-.418 2.629-.094.054-.617.039-1.246.023-.793-.023-1.75-.043-2.242.074-.61.149-2.036.996-2.192.985-.672-.04-2.191-1.219-3.73-1.219-1.57 0-3.055 1.164-3.727 1.227-.105.007-.723-.309-1.492-.625-.766-.313-1.672-.633-2.36-.622-1.253.016-3.484 1.254-3.675 1.239-.664-.04-2.192-1.219-3.73-1.219-1.563 0-3.055 1.164-3.727 1.227-.102.007-.719-.309-1.489-.625-.765-.313-1.675-.633-2.359-.622-1.262.016-3.484 1.254-3.676 1.239-.668-.04-2.191-1.219-3.734-1.219-1.567 0-3.055 1.164-3.727 1.227-.101.007-.722-.309-1.488-.625-.766-.313-1.676-.633-2.36-.622-1.257.016-3.48 1.254-3.679 1.239-.3-.016-1.379-.739-1.926-.895-4.77-1.426-9.265 3.067-7.84 7.844.16.539.88 1.617.895 1.922.008.195-1.16 2.32-1.18 3.691-.015 1.465 1.188 3.633 1.18 3.836-.035.664-1.215 2.188-1.215 3.73 0 1.536 1.18 3.06 1.215 3.727.008.196-1.16 2.317-1.18 3.692-.015 1.464 1.203 3.632 1.188 3.84-.067.667-1.223 2.152-1.223 3.722 0 1.543 1.18 3.063 1.215 3.727.008.199-1.16 2.32-1.18 3.695-.015 1.465 1.203 3.633 1.188 3.836-.067.672-1.223 2.156-1.223 3.726 0 1.54 1.18 3.06 1.215 3.727.008.176-.844 1.563-.988 2.188-.266 1.152-.07 2.222-.051 3.382-.899.75-2.457.801-3.461.239-.695-.387-.914-1.325-1.86-1.41-1.734-.16-1.894 1.515-3.5 1.734-2.41.324-3.953-1.356-3.511-3.73.258-1.383 1.719-1.563 1.707-3.09-.012-1.422-1.785-1.47-1.778-3.692.012-2.09 1.782-2.36 1.782-3.691 0-1.293-1.684-1.617-1.778-3.469-.125-2.379 1.704-2.457 1.766-3.922.078-1.781-2.582-2.008-1.586-5.039.367-1.105 1.598-1.351 1.598-2.55 0-1.298-1.684-1.622-1.778-3.47-.125-2.382 1.704-2.457 1.766-3.921.078-1.79-2.738-2.149-1.512-5.184.367-.91 1.43-1.285 1.52-2.191.14-1.508-1.672-1.77-1.774-3.688-.129-2.383 1.704-2.457 1.766-3.922.078-1.785-2.582-2.008-1.586-5.039.332-1.004 1.504-1.398 1.594-2.336.14-1.48-1.594-1.773-1.766-3.472-.258-2.563 1.696-2.63 1.758-4.133.066-1.496-1.52-1.727-1.73-3.278-.325-2.406 1.351-3.949 3.726-3.503 1.379.25 1.613 1.761 3.09 1.699 1.504-.067 1.574-2.02 4.133-1.762 1.699.172 1.992 1.906 3.472 1.762 1.176-.114 1.414-1.864 3.696-1.766 1.968.078 2.133 1.828 3.68 1.766 1.624-.07 1.992-2.723 4.976-1.516 1.031.414 1.238 1.524 2.414 1.524 1.375 0 1.598-1.875 3.91-1.774 1.973.078 2.137 1.828 3.684 1.766 1.62-.07 1.988-2.723 4.976-1.516 1.032.414 1.235 1.524 2.41 1.524 1.333 0 1.606-1.774 3.696-1.782 1.074 0 1.656.446 2.156.887.492.445.906.887 1.656.887Zm-12.87 86.258-.06-71.196c-.082-.824 1.489-1.304 2.11-1.324.652-.02 2.328.457 2.262 1.324l-.125 71.344c-.54.563-1.32.86-2.086.86-.813 0-1.61-.329-2.102-1.008m-22.965-3.559c.63-1.207 2.067-1.395 1.176-3.105-.559-1.083-1.59-.95-1.59-2.852 0-2.133 2.121-2.43 1.84-4.113-.133-.79-1.832-1.535-1.883-3.301-.058-1.895 1.832-2.668 1.899-3.656.101-1.551-1.856-1.809-1.856-3.91 0-2.137 2.121-2.434 1.84-4.118-.133-.785-1.832-1.535-1.883-3.3-.058-1.891 1.832-2.665 1.899-3.653.101-1.55-1.856-1.808-1.856-3.914 0-2.133 2.121-2.43 1.84-4.113-.133-.79-1.832-1.54-1.883-3.305-.058-1.87 1.746-2.625 1.883-3.453.281-1.68-1.84-1.977-1.84-4.11s2.121-2.433 1.84-4.117c-.137-.828-1.941-1.582-1.883-3.453.055-1.84 1.934-2.53 1.895-3.718-.04-1.196-1.196-1.493-1.586-2.34-1.375-2.989 2.25-5.793 4.719-3.637l.062 72.047c-.656.484-1.348.695-2.004.695-2.129 0-3.863-2.215-2.629-4.574m60.492-14.418v-53.422c.274-1.43 3.84-1.43 4.114 0l-.04 71.719c-1.34.926-2.695.926-4.034 0-.399-3.274.382-7.285-.06-10.473-.284-2.043-2.968-1.875-3.23-.215-.492 3.145.43 7.266-.12 10.516-1.122 1.16-3.497 1.285-4.231-.328l-.016-71.016c.2-1.746 4.11-1.535 4.36-.207l-.016 53.43c-.004 1.129.754 1.672 1.543 1.672.809 0 1.652-.574 1.73-1.676m-44.957-7.82.008-45.602c.274-1.43 3.84-1.43 4.114 0l-.043 71.719c-1.313.918-2.84.984-4.082-.11l.003-17.539c.118-2.082-2.902-2.742-3.242-.64l-.058 17.969c-.649 1.375-4.016 1.285-4.293-.18l-.016-71.016c.203-1.746 4.11-1.535 4.356-.207l-.012 45.828c.015 1.168.734 1.703 1.492 1.703.86 0 1.77-.69 1.773-1.925m52.54 25.633.148-71.801c2.73-1.614 5.918.89 4.508 3.906-.367.793-1.567 1.55-1.582 2.297-.024 1.601 2.847 2.125 1.691 4.98-.394.973-1.71 1.508-1.691 2.633.015.953 1.949 1.813 1.949 3.688 0 1.867-1.934 2.73-1.95 3.683-.023 1.602 2.848 2.125 1.692 4.98-.394.973-1.71 1.512-1.691 2.63.015.953 1.949 1.82 1.949 3.687 0 1.871-1.934 2.734-1.95 3.684-.023 1.605 2.848 2.125 1.692 4.98-.383.95-1.578 1.43-1.676 2.465-.125 1.406 2.97 2.262 1.567 5.242-.352.746-.817.817-1.102 1.176-1.418 1.813.688 2.45 1.211 3.754 1.172 2.902-1.93 3.523-1.676 5.144.22 1.372 2.942 1.989 1.567 4.91-.418.895-1.559 1.27-1.582 2.294-.032 1.593 3.484 2.699 1.28 5.656-.538.722-1.605 1.21-2.562 1.21-.812 0-1.539-.347-1.793-1.198m-37.414.55-.136-71.785c.258-1.355 3.289-1.367 4.015-.328l.117 12.258c.301 1.887 2.958 1.965 3.231.21l.05-12.323c.84-1.247 4.137-1.204 4.321.386l-.121 71.344c-1.113 1.152-3.477 1.297-4.23-.328v-51.684c-.208-2.101-3.141-1.851-3.266.22l-.04 51.964c-.667.46-1.343.7-2.023.7-.632 0-1.273-.208-1.918-.634m14.98 0-.03-72.113c.457-.96 3.3-.984 3.91 0l.062 72.047c-.668.46-1.343.7-2.02.7-.636 0-1.277-.208-1.921-.634"/></clipPath><clipPath id="c"><path d="M796 4336h4v5h-4Zm0 0"/></clipPath><clipPath id="d"><path d="M797.922 4336.824a2.8 2.8 0 0 0-.668.117c-1.137.332-1.129 2.614 0 2.946 1.539.453 2.305-.512 2.305-1.473 0-.777-.5-1.555-1.5-1.59Zm0 0"/></clipPath><clipPath id="e"><path d="M796 4279h4v4h-4Zm0 0"/></clipPath><clipPath id="f"><path d="M797.254 4279.18c-1.137.336-1.129 2.61 0 2.945 1.539.453 2.305-.508 2.305-1.473 0-.793-.52-1.586-1.567-1.586q-.334-.002-.738.114"/></clipPath><clipPath id="g"><path d="M805 4279h4v4h-4Zm0 0"/></clipPath><clipPath id="h"><path d="M805.941 4279.18c-1.136.336-1.136 2.61 0 2.945 1.5.441 2.274-.465 2.305-1.406v-.13c-.027-.773-.55-1.523-1.566-1.523-.223 0-.465.036-.739.114"/></clipPath><clipPath id="i"><path d="M813 4279h4v4h-4Zm0 0"/></clipPath><clipPath id="j"><path d="M814.625 4279.18c-1.137.336-1.129 2.61 0 2.945 1.54.453 2.309-.508 2.309-1.473 0-.793-.524-1.586-1.57-1.586q-.335-.002-.739.114"/></clipPath><clipPath id="k"><path d="M822 4279h4v4h-4Zm0 0"/></clipPath><clipPath id="l"><path d="M823.316 4279.18c-1.14.336-1.136 2.61 0 2.945 1.532.453 2.301-.508 2.301-1.473 0-.793-.523-1.586-1.57-1.586q-.33-.002-.73.114"/></clipPath><clipPath id="m"><path d="M831 4279h4v4h-4Zm0 0"/></clipPath><clipPath id="n"><path d="M832 4279.18c-1.14.336-1.133 2.61 0 2.945 1.54.453 2.305-.508 2.305-1.473 0-.793-.524-1.586-1.57-1.586q-.33-.002-.735.114"/></clipPath><clipPath id="o"><path d="M839 4279h4v4h-4Zm0 0"/></clipPath><clipPath id="p"><path d="M840.688 4279.18c-1.141.336-1.137 2.61 0 2.945 1.539.453 2.3-.508 2.3-1.473 0-.793-.52-1.586-1.566-1.586a2.6 2.6 0 0 0-.735.114"/></clipPath><clipPath id="q"><path d="M848 4279h4v4h-4Zm0 0"/></clipPath><clipPath id="r"><path d="M849.371 4279.18c-1.137.336-1.137 2.61 0 2.945 1.54.453 2.305-.508 2.305-1.473 0-.793-.524-1.586-1.57-1.586q-.33-.002-.735.114"/></clipPath><clipPath id="s"><path d="M857 4279h4v4h-4Zm0 0"/></clipPath><clipPath id="t"><path d="M858.055 4279.18c-1.137.336-1.133 2.61 0 2.945 1.539.453 2.304-.508 2.304-1.473 0-.793-.523-1.586-1.566-1.586-.227 0-.465.036-.738.114"/></clipPath><clipPath id="u"><path d="M796 4287h4v4h-4Zm0 0"/></clipPath><clipPath id="v"><path d="M797.254 4287.434c-1.137.332-1.129 2.609 0 2.945 1.539.45 2.305-.512 2.305-1.473 0-.793-.52-1.59-1.567-1.59q-.334 0-.738.118"/></clipPath><clipPath id="w"><path d="M796 4328h4v4h-4Zm0 0"/></clipPath><clipPath id="x"><path d="M797.254 4328.688c-1.14.335-1.129 2.617 0 2.945 1.539.453 2.305-.508 2.305-1.473 0-.789-.52-1.586-1.567-1.586-.226 0-.469.035-.738.114"/></clipPath><clipPath id="y"><path d="M796 4320h4v4h-4Zm0 0"/></clipPath><clipPath id="z"><path d="M797.254 4320.438c-1.137.335-1.129 2.613 0 2.945 1.539.453 2.305-.512 2.305-1.473 0-.793-.52-1.586-1.567-1.586-.222 0-.469.035-.738.114"/></clipPath><clipPath id="A"><path d="M796 4312h4v4h-4Zm0 0"/></clipPath><clipPath id="B"><path d="M797.922 4312.07a2.6 2.6 0 0 0-.668.118c-1.137.335-1.129 2.609 0 2.945 1.539.449 2.305-.512 2.305-1.473 0-.777-.5-1.555-1.5-1.59Zm0 0"/></clipPath><clipPath id="C"><path d="M796 4295h4v4h-4Zm0 0"/></clipPath><clipPath id="D"><path d="M797.254 4295.684c-1.14.332-1.129 2.613 0 2.945 1.539.45 2.305-.512 2.305-1.473 0-.797-.52-1.59-1.567-1.59-.222 0-.469.036-.738.118"/></clipPath><clipPath id="E"><path d="M796 4303h4v4h-4Zm0 0"/></clipPath><clipPath id="F"><path d="M797.254 4303.934c-1.137.336-1.129 2.613 0 2.949 1.539.449 2.305-.516 2.305-1.477 0-.793-.52-1.586-1.567-1.586-.222 0-.469.035-.738.114"/></clipPath></defs><g clip-path="url(#a)"><g clip-path="url(#b)"><path fill="#cea030" d="M771.602 4255.031v111.774h112.144V4255.03Zm0 0"/></g></g><g clip-path="url(#c)"><g clip-path="url(#d)"><path fill="#cea030" d="M796.117 4336.824v3.516h3.442v-3.516Zm0 0"/></g></g><g clip-path="url(#e)"><g clip-path="url(#f)"><path fill="#cea030" d="M796.117 4279.066v3.512h3.442v-3.512Zm0 0"/></g></g><g clip-path="url(#g)"><g clip-path="url(#h)"><path fill="#cea030" d="M804.805 4279.066v3.5h3.441v-3.5Zm0 0"/></g></g><g clip-path="url(#i)"><g clip-path="url(#j)"><path fill="#cea030" d="M813.488 4279.066v3.512h3.446v-3.512Zm0 0"/></g></g><g clip-path="url(#k)"><g clip-path="url(#l)"><path fill="#cea030" d="M822.176 4279.066v3.512h3.441v-3.512Zm0 0"/></g></g><g clip-path="url(#m)"><g clip-path="url(#n)"><path fill="#cea030" d="M830.86 4279.066v3.512h3.445v-3.512Zm0 0"/></g></g><g clip-path="url(#o)"><g clip-path="url(#p)"><path fill="#cea030" d="M839.547 4279.066v3.512h3.441v-3.512Zm0 0"/></g></g><g clip-path="url(#q)"><g clip-path="url(#r)"><path fill="#cea030" d="M848.234 4279.066v3.512h3.442v-3.512Zm0 0"/></g></g><g clip-path="url(#s)"><g clip-path="url(#t)"><path fill="#cea030" d="M856.918 4279.066v3.512h3.441v-3.512Zm0 0"/></g></g><g clip-path="url(#u)"><g clip-path="url(#v)"><path fill="#cea030" d="M796.117 4287.316v3.512h3.442v-3.512Zm0 0"/></g></g><g clip-path="url(#w)"><g clip-path="url(#x)"><path fill="#cea030" d="M796.113 4328.574v3.512h3.446v-3.512Zm0 0"/></g></g><g clip-path="url(#y)"><g clip-path="url(#z)"><path fill="#cea030" d="M796.117 4320.324v3.512h3.442v-3.512Zm0 0"/></g></g><g clip-path="url(#A)"><g clip-path="url(#B)"><path fill="#cea030" d="M796.117 4312.07v3.512h3.442v-3.512Zm0 0"/></g></g><g clip-path="url(#C)"><g clip-path="url(#D)"><path fill="#cea030" d="M796.113 4295.566v3.512h3.446v-3.512Zm0 0"/></g></g><g clip-path="url(#E)"><g clip-path="url(#F)"><path fill="#cea030" d="M796.117 4303.82v3.512h3.442v-3.512Zm0 0"/></g></g></svg>