<svg xmlns="http://www.w3.org/2000/svg" viewBox="296 9080 90 90"><path fill="#cfa337" d="M314.574 9145.121c-8.781 1.059-6.508 15.024 2.508 12.828 7.707-1.879 5.813-13.832-2.508-12.828m-12.168 7.809c-.066-.723-.07-2.043 0-2.762.281-2.91 2.067-6.258 4.211-8.215 7.496-5.148 14.735-11.383 22.324-16.324 3.426-2.23 5.247-1.176 7.743 1.644l-6.09 6.125c-.035.133.07.188.129.278.148.222 2.597 2.676 2.77 2.765.171.086.241.067.366-.074l5.95-5.965c2.793 2.457 3.894 4.352 1.644 7.746-5.152 7.766-11.387 15.258-16.816 22.856-7.766 7.613-21.239 2.683-22.23-8.074m58.827-62.649h.145l6.101 6.176-3.101 2.969-6.04-6.043Zm0 0"/><path fill="#cfa337" d="M342.063 9144.934c1.023-1.95 2.683-3.57 3.746-5.477 2.558-4.598.855-8.96-2.875-12.184l2.98-3.125-3.055-3.05-3.05 3.047c-2.38-2.633-4.973-4.403-8.696-4.047-3.48.332-6.011 3.238-8.875 4.925-1.683-2.425-1.742-5.66.137-8 2.844-3.535 7.254-6.73 10.242-10.246 2.457-1.98 6.035-1.87 8.43.145l19.101 19.113c1.97 2.328 2.11 5.82.274 8.278-3.543 3.011-6.86 7.667-10.445 10.472-2.372 1.852-5.434 1.656-7.914.149m6.917-42.289 6.145 6.042-2.988 3.094-6.145-6.039Zm9.297 9.305 6.145 6.042-2.988 3.094-6.145-6.043Zm-3.187-15.403c.168-.047.297 0 .414.121l5.715 5.777c.066.184-.028.278-.121.414-.602.899-2.145 1.899-2.84 2.825l-6.012-6.059c-.07-.18.027-.277.121-.414.164-.246 2.54-2.617 2.723-2.664m15.515 3.039 6.168 6.176-2.992 2.968-6.144-6.042c-.047-.278 2.613-2.653 2.968-3.102m-6.226 6.258 6.14 6.043c.04.203-2.648 2.89-2.847 2.945-.168.043-.297-.004-.414-.125l-5.875-5.895Zm-50.449 47.328c-2.133-2.129 1.257-5.195 3.148-3.078 1.899 2.125-1.215 5.008-3.148 3.078"/></svg>