<svg xmlns="http://www.w3.org/2000/svg" viewBox="857 1808 70 56"><path fill="#cfa337" d="M924.477 1814.785c-.082.121-.16.25-.258.363l-22.696 25.75a12.86 12.86 0 0 1-9.625 4.348 12.84 12.84 0 0 1-9.628-4.348l-22.973-26.07a7.8 7.8 0 0 0-.633 3.086v29.52c0 7.617 6.176 13.793 13.793 13.793h38.875c7.621 0 13.797-6.176 13.797-13.793v-29.52a7.8 7.8 0 0 0-.652-3.129"/><path fill="#cfa337" d="M887.426 1836.336a5.85 5.85 0 0 0 4.449 2.012 5.86 5.86 0 0 0 4.453-2.012l22.695-25.75c.079-.09.172-.164.262-.242a7.8 7.8 0 0 0-2.02-.274h-50.777c-.687 0-1.347.098-1.98.262Zm0 0"/></svg>